#!OML:ASF F:\VICON\USERDATA\INSTALL\rory3\rory3.ASF
:FULLY-SPECIFIED
:DEGREES
61
root 0.03150222814153383 18.271615937160988 27.504116554495866 1.203081800008365 4.6161536289043745 -3.8774190691589334
lfemur -21.951023064574137 -2.6328633001870974 -20.84271355079779
ltibia 27.081847721383525
lfoot 4.789444690793618 -10.361697788353522
ltoes -16.152651132037644
rfemur -0.1439126586870927 2.065824966518271 31.617830226269078
rtibia 69.59351301981096
rfoot 17.68069504144789 -10.787671006590156
rtoes 7.994060321099397
lowerback nan 1.845639330139855 3.5786778168025
upperback -1.0904572233828504 3.2590144399225505 1.6207923782414067
thorax -9.312739962711847 1.4291100751863006 -1.6410831910018966
lowerneck -20.314414595017425 -4.906941432744515 -1.747914186029631
upperneck 13.604437499461284 -6.9250994486007365 2.7426781239227127
head 7.634367731779867 -3.132235801296221 0.4113258401730439
lclavicle 7.59868766445299e-17 4.669025131947214e-15
lhumerus -56.75610933346623 -14.261306564456227 99.10793926932526
lradius 108.10538547119701
lwrist 35.55493564788775
lhand -25.16728492009694 0.5976376092576707
lfingers nan
lthumb 1.3756628528681427 30.588935703322168
rclavicle 6.304779101192439e-16 4.276084530331681e-15
rhumerus -46.54518670880286 12.91467882937349 -97.55986306548078
rradius 110.57356665394374
rwrist -9.06604906620336
rhand -16.041279924614518 nan
rfingers nan
rthumb 8.989515821132716 10.623028919069808
62
root -0.01853221869750951 18.08569237803865 28.30805511159246 0.5501725215552664 4.942608784132975 -3.2086214488428726
lfemur -20.35455731770583 -2.4767732004310727 -21.92737002637184
ltibia 28.675747984105087
lfoot 3.015882960271944 -11.735946899600805
ltoes -12.235348834003078
rfemur -2.1697722478204824 0.5279977211113436 30.02210041154423
rtibia 77.08924136786007
rfoot 16.444190920201088 -11.057549588733021
rtoes 13.747796521857875
lowerback nan 1.673080479398965 2.6756989820156676
upperback -0.7836762889779185 2.803291778712105 1.3560364026515033
thorax -9.39178946308546 1.239916356079358 -0.9815672359024926
lowerneck -20.34992935016591 -4.818711865465628 -1.7173096835096797
upperneck 13.482812429105861 -6.831718976729686 2.8638999543027785
head 7.605983827055194 -3.0710852079810556 0.46868973647279333
lclavicle 4.0049550328239927e-16 4.7836663571654324e-15
lhumerus -54.292075284486984 -15.596281762493929 99.20814864107541
lradius 108.22410647961652
lwrist 35.40677832308287
lhand -25.230318981433932 0.6376943447773797
lfingers nan
lthumb 1.4227280787871839 30.651543855010434
rclavicle 8.2107074377493275e-16 4.574626410792715e-15
rhumerus -47.21088622718284 12.376441750428135 -98.0414471401214
rradius 109.6076766584987
rwrist -8.81437259508678
rhand -16.035699327014186 nan
rfingers nan
rthumb 8.981953453643808 10.434539697688008
63
root -0.06310359997407922 17.851760219217034 28.901325867442146 0.08581613108079411 5.638955127773459 -2.419119332646605
lfemur -18.901861133938322 -2.443724888753123 -23.056113345251063
ltibia 31.9711879482664
lfoot -0.9952628729499098 -12.229754654652167
ltoes -7.908522472533544
rfemur -5.243772565734169 -1.4356344487587354 28.052439109280062
rtibia 84.3964907833244
rfoot 14.938416602634172 -10.834527840014768
rtoes 18.96104971723932
lowerback nan 1.3814849300562293 1.7144841121108247
upperback -0.5775498899214813 2.216955127925437 1.0998742969446753
thorax -9.475756793301626 0.9973797367066164 -0.30078569011705725
lowerneck -20.57714986302385 -4.755440832383799 -1.718175827583924
upperneck 13.427212105939669 -6.762654906739263 2.9813266579071587
head 7.614334445355654 -3.0210083882257646 0.5189859038771804
lclavicle 5.010298169000654e-16 4.679316549260297e-15
lhumerus -51.705482839804276 -16.982370761648042 99.14928458054683
lradius 108.16421739038064
lwrist 35.300140732661106
lhand -25.31064398433114 0.7768436909324077
lfingers nan
lthumb 1.3611226484442192 30.629090330543868
rclavicle 8.475075462876368e-16 4.660216797062972e-15
rhumerus -47.97618593949079 11.71493160272821 -98.52179129969899
rradius 108.68742880924871
rwrist -8.699872538237425
rhand -15.980061755276427 nan
rfingers nan
rthumb 9.181288434536716 10.235734517295816
64
root -0.15167241618041144 17.567559729762678 29.8865820697874 -0.0630385528540951 5.692854897373725 -1.6618340916058627
lfemur -17.611930745546633 -2.1294158165148183 -24.203122957160307
ltibia 36.148102430585595
lfoot -6.104526271825572 -10.858078318790785
ltoes -4.7800350130049685
rfemur -9.532363829562298 -2.938082019806789 25.93933954693844
rtibia 91.28554352356697
rfoot 13.567684912666323 -9.94212973021418
rtoes 21.488910983975305
lowerback nan 1.247256906165557 0.6251601231742917
upperback -0.39477576426442584 1.8194510901878598 0.6915429814017044
thorax -9.552896408702672 0.8619803605831813 0.33056661646952135
lowerneck -20.81157282002175 -4.569173514607126 -1.6526332877082777
upperneck 13.340691874984937 -6.521283629023386 3.055996485518947
head 7.629840420320492 -2.8952100451030245 0.5643048048220632
lclavicle 5.119359877328626e-16 5.012035354578865e-15
lhumerus -49.10876452018067 -18.211947650255034 98.9402290774997
lradius 108.02349199894701
lwrist 35.27607717321304
lhand -25.3415297369522 0.8249178618523898
lfingers nan
lthumb 1.404365554888343 30.8814182626701
rclavicle 8.039255895915008e-16 4.8894958788932686e-15
rhumerus -48.86601278228164 10.973260067904013 -99.00187118189413
rradius 107.88474980074598
rwrist -8.776404933990976
rhand -15.96700565377684 nan
rfingers nan
rthumb 9.191510298831103 9.875780724091461
65
root -0.20947644810880528 17.27048884447818 31.449456753402316 0.5190155596918085 5.509615376590616 -0.7011267186444221
lfemur -16.05770262139872 -1.9142281449904108 -25.345398985438543
ltibia 39.952263057234816
lfoot -10.871787804672437 -7.652328642303518
ltoes -2.584977613203124
rfemur -15.178543496741817 -3.950787297508691 23.706551272792204
rtibia 97.37686731109801
rfoot 12.520588178668643 -8.433370689106365
rtoes 21.37503737533026
lowerback nan 1.1792270679137742 -0.6132407208010819
upperback -0.23808626331140348 1.5041407436652763 0.2790487906456651
thorax -9.670621098765146 0.7606771126643755 0.8549570098114315
lowerneck -21.245160877027992 -4.4176142115960335 -1.6269261507826855
upperneck 13.280492430789163 -6.30719594185217 3.1137853668641053
head 7.659757312160407 -2.778938875056175 0.6003483924276115
lclavicle 3.4381366533499776e-17 5.414128988823249e-15
lhumerus -46.63613930669919 -19.128520640035532 98.62343917499571
lradius 107.9742451804567
lwrist 35.096344854544064
lhand -25.337088050290546 1.0032217007039304
lfingers nan
lthumb 1.4401602413273693 31.079492282087195
rclavicle 5.1432936058533985e-17 5.006936384508206e-15
rhumerus -49.89258746580605 10.175963924925332 -99.4369976499568
rradius 107.26600622751866
rwrist -8.983707194774311
rhand -15.949541420874237 nan
rfingers nan
rthumb 9.22301115206267 9.648032523892779
